<svg xmlns="http://www.w3.org/2000/svg" width="100%" height="100%" viewBox="0 0 20 20" fill="">
  <path fill-rule="evenodd" clip-rule="evenodd" d="M19.6777 18.2928C20.0682 18.6833 20.0682 19.3164 19.6777 19.707C19.2871 20.0975 18.654 20.0975 18.2635 19.707L10.4854 11.9289L2.70727 19.707C2.31674 20.0975 1.68358 20.0975 1.29306 19.707C0.902531 19.3164 0.902531 18.6833 1.29306 18.2928L9.07115 10.5147L1.29289 2.7364C0.902369 2.34588 0.902369 1.71271 1.29289 1.32219C1.68342 0.931666 2.31658 0.931666 2.70711 1.32219L10.4854 9.10044L18.2636 1.32219C18.6541 0.931666 19.2873 0.931666 19.6778 1.32219C20.0684 1.71271 20.0684 2.34588 19.6778 2.7364L11.8996 10.5147L19.6777 18.2928Z" fill=""/>
</svg>